<svg viewBox="0 0 32 32" xmlns="http://www.w3.org/2000/svg"><path d="m0 0h32v32h-32z" fill="#3cb96d"/><path d="m25.18 23-.486.225c-2.916 1.315-5.81 1.967-8.694 1.967-3.044 0-6.1-.727-9.18-2.192l-1.32 2.512.497.23c3.316 1.502 6.654 2.258 10.003 2.258 3.516 0 7.02-.833 10.5-2.488zm-11.508-19h-3.672v17.424h3.612v-.856c.278.236.59.44.936.61.656.324 1.38.486 2.172.486 1.104 0 2.084-.264 2.94-.792a5.579 5.579 0 0 0 2.016-2.16c.488-.912.732-1.948.732-3.108 0-1.168-.244-2.21-.732-3.126a5.568 5.568 0 0 0 -2.016-2.166c-.856-.528-1.836-.792-2.94-.792-.784 0-1.504.152-2.16.456-.325.15-.621.33-.887.538zm2.388 8.832c.512 0 .966.118 1.362.354s.706.562.93.978.336.892.336 1.428-.112 1.012-.336 1.428a2.501 2.501 0 0 1 -.924.978c-.392.236-.844.354-1.356.354s-.966-.116-1.362-.348a2.405 2.405 0 0 1 -.924-.972c-.22-.416-.33-.896-.33-1.44s.108-1.022.324-1.434.522-.736.918-.972.85-.354 1.362-.354z" fill="#fff"/></svg>